# xmcd
#
# Track frame offsets: 
#        150
#        24740
#        50465
#        75196
#        103633
#        128261
#        151079
#        183497
#        199209
#        220115
#        240819
#        266281
#
# Disc length: 3916 seconds
#
# Revision: 0
# Processed by: cddbd v1.5.2PL0 Copyright (c) Steve Scherf et al.
# Submitted via: ExactAudioCopy v1.0b4
#
DISCID=870f4a0c
DTITLE=Jimmy Thackery and The Drivers - Spare Keys
DYEAR=2016
DGENRE=Blues
TTITLE0=Candy Apple Red
TTITLE1=Blues All Night
TTITLE2=You Can't Come Back
TTITLE3=No More Than Me
TTITLE4=Fightin' In The Jungle
TTITLE5=I've Got News For You
TTITLE6=I Even Lost The Blues
TTITLE7=Five Inch Knife
TTITLE8=Same Page On Demand
TTITLE9=Puttin' The Word Out
TTITLE10=Bella Noche
TTITLE11=The Barber's Guitar
EXTD=
EXTT0=
EXTT1=
EXTT2=
EXTT3=
EXTT4=
EXTT5=
EXTT6=
EXTT7=
EXTT8=
EXTT9=
EXTT10=
EXTT11=
PLAYORDER=
